<?xml version="1.0" encoding="UTF-8"?>
<svg version="1.1" xmlns="http://www.w3.org/2000/svg" width="512" height="512">
<path d="M0 0 C7.75700092 5.44331332 7.75700092 5.44331332 10.26538086 8.5847168 C12.72765723 10.59369866 14.41485017 10.31231784 17.55859375 10.22265625 C19.22245117 10.19461914 19.22245117 10.19461914 20.91992188 10.16601562 C22.66112305 10.11477539 22.66112305 10.11477539 24.4375 10.0625 C39.24239211 9.6642001 54.40109312 10.43868086 66.375 20.25 C70.69486595 24.38911842 75.72068302 29.53846458 76.21875 35.7109375 C76 38 76 38 75 39 C71.44432006 38.67675637 68.09561188 38.32482965 64.66796875 37.30859375 C56.94181577 35.12430171 51.89577005 37.23310914 45 41 C29.9099735 49.91769446 21.14563352 58.49063441 15.625 75.0625 C15.24472656 76.13822266 14.86445313 77.21394531 14.47265625 78.32226562 C14.12332031 79.36189453 13.77398437 80.40152344 13.4140625 81.47265625 C13.0938916 82.41375244 12.7737207 83.35484863 12.44384766 84.32446289 C11.90421686 87.57738584 12.47950448 89.11194913 14 92 C15.3764391 93.61654815 16.82343342 95.17406245 18.3125 96.6875 C30.8451712 110.19393271 40.39180785 125.78184127 49 142 C49.43940918 142.82274414 49.87881836 143.64548828 50.33154297 144.49316406 C68.44964574 178.94568664 76.46343698 216.97402467 76.3125 255.6875 C76.30976578 257.1442514 76.30976578 257.1442514 76.30697632 258.63043213 C76.26271428 272.6325203 75.8487177 286.24864275 73 300 C72.83902832 300.84900879 72.67805664 301.69801758 72.51220703 302.57275391 C66.26219374 335.34779959 53.60837499 367.84461627 34 395 C33.50757813 395.68868164 33.01515625 396.37736328 32.5078125 397.08691406 C26.45404934 405.50302769 20.07027841 413.40904217 13 421 C11.80759878 422.37075183 10.61986117 423.74557863 9.4375 425.125 C3.42047723 431.99569648 -3.03168468 438.00815 -10.16015625 443.71875 C-11.99903843 445.19592633 -13.82078823 446.6947954 -15.62109375 448.21875 C-28.30607136 458.92464492 -42.32696954 467.3201924 -57 475 C-58.09707275 475.57814453 -58.09707275 475.57814453 -59.21630859 476.16796875 C-79.82047849 486.87902979 -102.23697754 493.68414131 -125 498 C-125.7832666 498.16226074 -126.5665332 498.32452148 -127.37353516 498.49169922 C-154.23425261 503.93803427 -186.19955991 503.55195292 -213 498 C-213.84900879 497.83902832 -214.69801758 497.67805664 -215.57275391 497.51220703 C-279.98176251 485.22977839 -335.53828391 447.45105443 -372.828125 393.99609375 C-397.44174128 357.71446191 -413.97242406 312.49605946 -414.203125 268.3046875 C-414.21018463 267.40282211 -414.21724426 266.50095673 -414.22451782 265.57176208 C-414.45349869 227.72138763 -414.45349869 227.72138763 -411 211 C-410.80132324 210.01692871 -410.60264648 209.03385742 -410.39794922 208.02099609 C-398.87721943 152.62656577 -368.95782515 100.07083456 -324 65 C-322.52466797 63.81664063 -322.52466797 63.81664063 -321.01953125 62.609375 C-291.00495314 38.73382019 -255.18667621 22.33895256 -217.625 14.6875 C-216.90248047 14.54022461 -216.17996094 14.39294922 -215.43554688 14.24121094 C-200.10441368 11.34713761 -184.94227809 10.62521024 -169.375 10.6875 C-168.40444672 10.68965515 -167.43389343 10.6918103 -166.43392944 10.69403076 C-143.79963388 10.774652 -123.28259501 13.71695309 -101.3840332 19.49682617 C-98.75379616 20.13767359 -98.75379616 20.13767359 -95 20 C-93.06433515 18.06633664 -93.06433515 18.06633664 -91.3125 15.5 C-68.92460539 -13.66588105 -30.58876607 -18.93025704 0 0 Z " fill="#543E5B" transform="translate(425,11)"/>
<path d="M0 0 C5.03682067 1.67894022 7.53527317 6.30759936 10.73974609 10.39550781 C11.95793633 11.94644664 13.1916052 13.48518909 14.42578125 15.0234375 C31.70121075 36.90013769 45.15273805 61.55566226 54 88 C54.41886475 89.25006836 54.41886475 89.25006836 54.84619141 90.52539062 C57.8413823 99.62907856 60.32754123 108.79766209 62.25 118.1875 C62.40114258 118.92170166 62.55228516 119.65590332 62.70800781 120.41235352 C65.66178491 135.81300058 66.3734956 151.04288172 66.3125 166.6875 C66.30976578 168.1442514 66.30976578 168.1442514 66.30697632 169.63043213 C66.26271428 183.6325203 65.8487177 197.24864275 63 211 C62.83902832 211.84900879 62.67805664 212.69801758 62.51220703 213.57275391 C56.26219374 246.34779959 43.60837499 278.84461627 24 306 C23.50757813 306.68868164 23.01515625 307.37736328 22.5078125 308.08691406 C16.45404934 316.50302769 10.07027841 324.40904217 3 332 C1.80759878 333.37075183 0.61986117 334.74557863 -0.5625 336.125 C-6.57952277 342.99569648 -13.03168468 349.00815 -20.16015625 354.71875 C-21.99903843 356.19592633 -23.82078823 357.6947954 -25.62109375 359.21875 C-38.30607136 369.92464492 -52.32696954 378.3201924 -67 386 C-68.09707275 386.57814453 -68.09707275 386.57814453 -69.21630859 387.16796875 C-89.82047849 397.87902979 -112.23697754 404.68414131 -135 409 C-135.7832666 409.16226074 -136.5665332 409.32452148 -137.37353516 409.49169922 C-164.23425261 414.93803427 -196.19955991 414.55195292 -223 409 C-223.84900879 408.83902832 -224.69801758 408.67805664 -225.57275391 408.51220703 C-272.91944068 399.48346533 -313.35268554 376.75479162 -349 345 C-346.42420709 339.70592351 -346.42420709 339.70592351 -344 338 C-341.5 337.875 -341.5 337.875 -339 339 C-337.1875 342.5625 -337.1875 342.5625 -336 346 C-329.20960162 345.59558569 -324.06754011 342.85005142 -318.125 339.6875 C-317.11646973 339.15713135 -316.10793945 338.6267627 -315.06884766 338.08032227 C-306.41680764 333.42832703 -298.49353421 328.04968816 -290.63574219 322.17919922 C-288.50448358 320.64278443 -286.28245967 319.29864085 -284 318 C-283.56429687 318.64066406 -283.12859375 319.28132813 -282.6796875 319.94140625 C-276.37677241 329.45782368 -276.37677241 329.45782368 -268 337 C-262.37118536 337.58898417 -259.32120625 336.43560337 -254.5625 333.5 C-245.82272649 328.5945143 -245.82272649 328.5945143 -240 330 C-237.94312622 331.61225662 -236.25340966 333.29891426 -234.54296875 335.2734375 C-232.07799331 338.03171381 -230.27251439 338.95458094 -226.625 339.5625 C-221.07002602 339.49049108 -216.76251789 336.34662108 -212.1484375 333.53125 C-208.73271147 331.87000359 -206.7440239 331.575748 -203 332 C-201.33333333 333 -199.66666667 334 -198 335 C-194.70322146 335.40368717 -192.82301976 335.48888196 -189.94580078 333.77978516 C-187.66834077 331.69663792 -187.01468165 330.01713358 -185.9296875 327.1484375 C-182.87183965 320.74715693 -178.50806198 319.11096525 -172.125 316.625 C-169.94843264 315.69890293 -167.77399864 314.76777825 -165.6015625 313.83203125 C-164.49844727 313.36490723 -163.39533203 312.8977832 -162.25878906 312.41650391 C-138.48722646 302.08367455 -112.35731807 287.42270782 -94.44067383 268.33911133 C-93 267 -93 267 -91 267 C-90.67 266.01 -90.34 265.02 -90 264 C-88.46875 262.52734375 -88.46875 262.52734375 -86.5 260.9375 C-62.23866673 240.19728059 -46.35629231 210.10131751 -34.76196289 180.87084961 C-34.05128798 179.12592753 -33.2816521 177.40534288 -32.5078125 175.6875 C-20.40591325 146.09114535 -17.38535054 112.92978065 -14.64900208 81.37057495 C-14.12748876 75.36576145 -13.56809703 69.36551334 -12.9765625 63.3671875 C-12.89944031 62.57020447 -12.82231812 61.77322144 -12.74285889 60.9520874 C-10.6659 40.1339944 -6.1664756 19.96522838 0 0 Z " fill="#FEC739" transform="translate(435,100)"/>
<path d="M0 0 C0.97055328 0.00215515 1.94110657 0.0043103 2.94107056 0.00653076 C25.54420507 0.08704101 53.98574307 0.26819602 74.375 11.3125 C73.818125 12.45203125 73.26125 13.5915625 72.6875 14.765625 C66.16814944 28.23366678 60.55757225 41.92466094 55.24729919 55.9083252 C42.35639254 89.84041119 42.35639254 89.84041119 35.375 100.3125 C32.88692669 100.90037412 30.52109953 101.3309926 28 101.6875 C8.12952304 104.98591027 -7.91371276 115.9096462 -20.75 131.18359375 C-23.9095531 134.771003 -27.36275332 138.06818854 -30.78125 141.40625 C-32.92078742 143.54050554 -34.90851539 145.76756786 -36.87890625 148.05859375 C-41.05767478 152.88200196 -45.54085061 157.37489938 -50.0625 161.875 C-50.87009766 162.68646484 -51.67769531 163.49792969 -52.50976562 164.33398438 C-56.11407858 167.93248861 -59.73129522 171.46040787 -63.59765625 174.77734375 C-68.5361547 179.0246865 -73.05645382 183.67473343 -77.625 188.3125 C-82.91772766 193.6854205 -88.21808957 198.9447776 -93.9453125 203.85546875 C-95.93818105 205.58416636 -97.79295955 207.41502953 -99.625 209.3125 C-102.09211459 211.86772582 -104.66228171 214.23697883 -107.34375 216.5625 C-111.71836873 220.36193738 -115.9264885 224.32047267 -120.125 228.3125 C-124.91265647 232.86469795 -129.74518358 237.33155302 -134.73632812 241.66015625 C-137.58631796 244.15352895 -140.3550239 246.73100707 -143.125 249.3125 C-148.91211614 254.67556378 -154.79140487 259.90230679 -160.80078125 265.015625 C-161.99245686 266.03093394 -163.1838541 267.04656967 -164.375 268.0625 C-164.97860352 268.57723877 -165.58220703 269.09197754 -166.20410156 269.62231445 C-170.14966198 273.00339669 -174.00604104 276.46351153 -177.8125 280 C-182.35953987 284.22326845 -187.07635687 288.17578724 -191.91015625 292.06640625 C-194.73173495 294.4008059 -197.43090712 296.83240598 -200.125 299.3125 C-206.28573942 304.97896807 -212.68706425 310.35206603 -219.37890625 315.3828125 C-221.86257489 317.1929456 -221.86257489 317.1929456 -222.6875 320.3125 C-222.92214171 323.39270828 -222.92214171 323.39270828 -220.875 325.5625 C-219.17743387 326.88282921 -217.41439182 328.11957212 -215.625 329.3125 C-221.07 333.2725 -221.07 333.2725 -226.625 337.3125 C-236.62114031 327.31635969 -239.00494743 302.94083544 -241.625 289.3125 C-241.78871094 288.52488281 -241.95242187 287.73726563 -242.12109375 286.92578125 C-247.61533318 259.81783958 -247.21140407 227.36113572 -241.625 200.3125 C-241.42632324 199.32942871 -241.22764648 198.34635742 -241.02294922 197.33349609 C-229.50221943 141.93906577 -199.58282515 89.38333456 -154.625 54.3125 C-153.64144531 53.52359375 -152.65789062 52.7346875 -151.64453125 51.921875 C-121.62995314 28.04632019 -85.81167621 11.65145256 -48.25 4 C-47.52748047 3.85272461 -46.80496094 3.70544922 -46.06054688 3.55371094 C-30.72941368 0.65963761 -15.56727809 -0.06228976 0 0 Z " fill="#FFDC3F" transform="translate(255.625,21.6875)"/>
<path d="M0 0 C13.25955012 12.20203999 20.46988055 29.56660823 21.28125 47.40625 C21.31522862 49.68727072 21.3250281 51.96876062 21.3125 54.25 C21.30750488 55.46324951 21.30250977 56.67649902 21.29736328 57.92651367 C20.65894354 91.3819093 4.35160388 119.0683609 -18.1875 142.75 C-19.05955078 143.70132813 -19.05955078 143.70132813 -19.94921875 144.671875 C-39.6833453 165.54928848 -69.10351898 182.59728378 -96.1875 191.75 C-100.0782395 191.68515434 -102.27685799 191.36529866 -105.5 189.1875 C-107.83441855 185.8155621 -108.3846315 182.76434249 -109.1875 178.75 C-113.93989379 179.23564608 -116.32842061 181.2206173 -119.9375 184.25 C-136.53991755 197.54729553 -156.38932052 204.36084766 -177.1875 207.75 C-178.25742188 207.935625 -179.32734375 208.12125 -180.4296875 208.3125 C-185.34050684 208.8842378 -190.18478312 208.94076491 -195.125 208.9375 C-196.64492554 208.9384668 -196.64492554 208.9384668 -198.19555664 208.93945312 C-205.48738195 208.88868324 -212.51629078 208.31545607 -219.71484375 207.1875 C-226.06063994 206.38802961 -231.1200921 206.33285735 -237.0625 209.0625 C-245.18393212 212.42968976 -253.51986763 213.55345816 -262.1875 214.75 C-261.32125 215.6575 -260.455 216.565 -259.5625 217.5 C-250.84054175 227.61001336 -248.3155408 238.65359415 -249.00488281 251.59667969 C-249.47424019 257.13108082 -250.62434978 261.42984351 -254.1875 265.75 C-258.46105257 268.8917909 -263.31004949 270.91938916 -268.19433594 272.91699219 C-271.00331951 274.0909574 -273.70789395 275.46609055 -276.4375 276.8125 C-280.58388883 278.82774799 -280.58388883 278.82774799 -283.16064453 278.49584961 C-285.63066976 277.58692079 -286.35539843 276.67373389 -287.8515625 274.53125 C-288.32859619 273.85562012 -288.80562988 273.17999023 -289.29711914 272.48388672 C-290.04723267 271.37811279 -290.04723267 271.37811279 -290.8125 270.25 C-291.34029053 269.48316895 -291.86808105 268.71633789 -292.41186523 267.92626953 C-302.60230762 252.94023469 -310.59125817 237.18673325 -318.1875 220.75 C-314.73205908 217.24429812 -311.22954531 214.54833906 -307.1875 211.75 C-308.156875 211.21375 -309.12625 210.6775 -310.125 210.125 C-313.1875 207.75 -313.1875 207.75 -314.375 204.8125 C-314.11487137 200.56373234 -312.26241174 199.60252591 -309.1875 196.75 C-307.94613281 195.58210938 -307.94613281 195.58210938 -306.6796875 194.390625 C-301.2345784 189.41688355 -295.67632877 184.66144139 -289.9375 180.03125 C-286.1456046 176.88570041 -282.54930627 173.54354438 -278.92578125 170.20703125 C-276.30589954 167.85623867 -273.62197781 165.63749541 -270.875 163.4375 C-265.1326666 158.80578982 -259.786857 153.80176537 -254.41015625 148.7578125 C-251.36688059 145.9052359 -248.25805866 143.1407379 -245.1015625 140.4140625 C-241.94718376 137.67168425 -238.85297208 134.8627431 -235.75 132.0625 C-233.27484669 129.82882507 -230.79381688 127.60182284 -228.3125 125.375 C-224.06379527 121.55249763 -219.84768305 117.6952866 -215.64013672 113.82763672 C-212.5925004 111.02886639 -209.52435895 108.25538417 -206.4375 105.5 C-200.67227215 100.32418841 -195.03604752 95.01286466 -189.39453125 89.703125 C-186.67201425 87.14090397 -183.94073672 84.58875144 -181.19921875 82.046875 C-173.33574132 74.74299271 -165.64351914 67.30336746 -158.12133789 59.64697266 C-154.92546182 56.41005867 -151.70131422 53.27782249 -148.25390625 50.30859375 C-143.66423512 46.35329475 -139.39670932 42.1059483 -135.125 37.8125 C-133.9793457 36.67264648 -133.9793457 36.67264648 -132.81054688 35.50976562 C-128.62974834 31.32181431 -124.63629641 27.04022923 -120.77563477 22.55639648 C-118.52356268 19.99481596 -116.12812365 17.63319721 -113.6875 15.25 C-110.54050015 12.16428804 -107.53621728 9.04475812 -104.75 5.625 C-93.94599989 -6.86473062 -78.17732813 -14.20779526 -62.1875 -17.25 C-61.011875 -17.476875 -59.83625 -17.70375 -58.625 -17.9375 C-37.04069925 -19.89970916 -16.84269277 -13.69697583 0 0 Z " fill="#665364" transform="translate(346.1875,139.25)"/>
<path d="M0 0 C0.90045044 -0.00705963 1.80090088 -0.01411926 2.7286377 -0.02139282 C64.79060146 -0.39757048 64.79060146 -0.39757048 86.20703125 11.203125 C85.65015625 12.34265625 85.09328125 13.4821875 84.51953125 14.65625 C78.00018069 28.12429178 72.3896035 41.81528594 67.07933044 55.7989502 C54.18842379 89.73103619 54.18842379 89.73103619 47.20703125 100.203125 C44.71895794 100.79099912 42.35313078 101.2216176 39.83203125 101.578125 C19.96155429 104.87653527 3.91831849 115.8002712 -8.91796875 131.07421875 C-12.07752185 134.661628 -15.53072207 137.95881354 -18.94921875 141.296875 C-21.08875617 143.43113054 -23.07648414 145.65819286 -25.046875 147.94921875 C-29.22564353 152.77262696 -33.70881936 157.26552438 -38.23046875 161.765625 C-39.03806641 162.57708984 -39.84566406 163.38855469 -40.67773438 164.22460938 C-44.28204733 167.82311361 -47.89926397 171.35103287 -51.765625 174.66796875 C-56.70412345 178.9153115 -61.22442257 183.56535843 -65.79296875 188.203125 C-71.08569641 193.5760455 -76.38605832 198.8354026 -82.11328125 203.74609375 C-84.1061498 205.47479136 -85.9609283 207.30565453 -87.79296875 209.203125 C-90.26008334 211.75835082 -92.83025046 214.12760383 -95.51171875 216.453125 C-99.88633748 220.25256238 -104.09445725 224.21109767 -108.29296875 228.203125 C-113.08062522 232.75532295 -117.91315233 237.22217802 -122.90429688 241.55078125 C-125.75428671 244.04415395 -128.52299265 246.62163207 -131.29296875 249.203125 C-137.08008489 254.56618878 -142.95937362 259.79293179 -148.96875 264.90625 C-150.16042561 265.92155894 -151.35182285 266.93719467 -152.54296875 267.953125 C-153.14657227 268.46786377 -153.75017578 268.98260254 -154.37207031 269.51293945 C-158.31763073 272.89402169 -162.17400979 276.35413653 -165.98046875 279.890625 C-170.52750862 284.11389345 -175.24432562 288.06641224 -180.078125 291.95703125 C-182.8997037 294.2914309 -185.59887587 296.72303098 -188.29296875 299.203125 C-194.45370817 304.86959307 -200.855033 310.24269103 -207.546875 315.2734375 C-210.03054364 317.0835706 -210.03054364 317.0835706 -210.85546875 320.203125 C-211.09011046 323.28333328 -211.09011046 323.28333328 -209.04296875 325.453125 C-207.34540262 326.77345421 -205.58236057 328.01019712 -203.79296875 329.203125 C-209.23796875 333.163125 -209.23796875 333.163125 -214.79296875 337.203125 C-224.76574428 327.23034947 -227.21896715 302.8164009 -229.79296875 289.203125 C-229.95667969 288.36233398 -230.12039062 287.52154297 -230.2890625 286.65527344 C-233.60498158 268.95895324 -233.10078851 251.12612813 -232.79296875 233.203125 C-231.57081665 233.84193604 -231.57081665 233.84193604 -230.32397461 234.49365234 C-229.25026611 235.0448877 -228.17655762 235.59612305 -227.0703125 236.1640625 C-225.4769104 236.98849854 -225.4769104 236.98849854 -223.85131836 237.82958984 C-216.50559807 241.12862572 -209.8297992 239.11123515 -202.44140625 236.6484375 C-189.29685628 231.44128173 -177.84401843 223.92375835 -166.79296875 215.203125 C-166.1287793 214.68169922 -165.46458984 214.16027344 -164.78027344 213.62304688 C-156.69734042 207.24723545 -148.90516327 200.63696713 -141.3828125 193.609375 C-139.24639982 191.62441239 -137.0785436 189.71381011 -134.85546875 187.828125 C-130.54038566 184.09859599 -126.58472886 180.02064622 -122.57714844 175.96801758 C-119.09317757 172.45921911 -115.51807266 169.14577685 -111.75390625 165.9375 C-106.33851777 161.14779385 -101.28647539 155.96238266 -96.578125 150.48046875 C-91.62753142 144.77915669 -86.19845886 139.56271479 -80.8203125 134.26953125 C-76.49724314 129.98809659 -72.35541303 125.64179413 -68.39257812 121.02539062 C-65.5400022 117.77575285 -62.4288054 114.7952227 -59.33203125 111.78125 C-56.58031003 109.0732069 -53.98261773 106.29864962 -51.46875 103.3671875 C-48.25284398 99.64722374 -44.81738048 96.22790073 -41.28417969 92.81103516 C-25.26378946 77.28300537 -9.9491804 58.32115944 -9.55175781 34.92163086 C-9.5216671 26.8982765 -9.88630739 19.79000381 -12.79296875 12.203125 C-13.1178125 11.3471875 -13.44265625 10.49125 -13.77734375 9.609375 C-15.76300066 4.6385621 -15.76300066 4.6385621 -19.79296875 1.203125 C-13.17966911 0.44389059 -6.65520534 0.03495751 0 0 Z " fill="#FEC739" transform="translate(243.79296875,21.796875)"/>
<path d="M0 0 C3 1 3 1 4.16821289 3.24169922 C5.00421559 6.01397937 5.2675758 8.24654262 5.30859375 11.1328125 C5.33373047 12.10476563 5.35886719 13.07671875 5.38476562 14.078125 C5.41951523 16.08587998 5.45084819 18.09369744 5.47851562 20.1015625 C5.79738655 31.92311856 8.37332895 43.48564541 17.07421875 52.0390625 C21.98275102 56.06525825 27.11978877 58.69487182 33 61 C34.35589153 61.57931277 35.71022639 62.16229155 37.0625 62.75 C38.031875 63.1625 39.00125 63.575 40 64 C36.15547518 68.74870976 32.17321616 72.84506537 27.375 76.625 C26.73602783 77.1307959 26.09705566 77.6365918 25.4387207 78.15771484 C5.79763333 93.39854433 -16.10015964 104.82639881 -38.48046875 115.43359375 C-39.43703369 115.88718262 -40.39359863 116.34077148 -41.37915039 116.80810547 C-43.58920304 117.81318018 -45.79772908 118.68749122 -48.0703125 119.53515625 C-51.53801687 121.26900843 -52.26838797 122.45485769 -53.6875 126 C-55.23704661 129.78652843 -56.4323863 131.88130221 -60 134 C-64.82370654 134.61579232 -66.95628825 133.42622705 -71 131 C-76.19204449 130.41166635 -78.9833978 131.82037832 -83.375 134.5 C-92.37678832 139.47494077 -92.37678832 139.47494077 -98 138 C-100.64250059 135.78727809 -103.08714712 133.4164234 -105.57421875 131.03125 C-107.99358852 128.71204815 -107.99358852 128.71204815 -111.8125 128 C-116.96091755 128.58599874 -121.43426664 131.80400292 -125.75390625 134.46875 C-129.52731222 136.24874415 -131.87401003 136.49107465 -136 136 C-141.98560527 132.77204859 -145.90009289 126.68660313 -149.5546875 121.13671875 C-150.96010556 118.91354612 -150.96010556 118.91354612 -153 117 C-153.69222656 117.52001587 -153.69222656 117.52001587 -154.3984375 118.05053711 C-164.87952204 125.88157471 -175.41383871 132.9235369 -187 139 C-188.15113281 139.62132812 -189.30226562 140.24265625 -190.48828125 140.8828125 C-199.39172045 145.55738986 -199.39172045 145.55738986 -204 145 C-206.46278801 142.53721199 -206.99771255 140.29323018 -208 137 C-212.43634129 137.50701043 -214.62737086 139.16585787 -218 142 C-223.91375919 136.19333102 -229.64825522 130.3297286 -235 124 C-235.50789063 123.41992188 -236.01578125 122.83984375 -236.5390625 122.2421875 C-240 118.2398743 -240 118.2398743 -240 116 C-239.17798096 115.6690332 -238.35596191 115.33806641 -237.5090332 114.99707031 C-234.42740511 113.73265644 -231.36661953 112.43212844 -228.31176758 111.10498047 C-226.99417302 110.54151532 -225.67025056 109.99259145 -224.34008789 109.45947266 C-217.40542028 106.66891442 -211.84447179 104.30999061 -208.64453125 97.078125 C-207.10456161 92.21186648 -206.19715957 87.60098399 -206.375 82.5 C-206.38974365 81.78005859 -206.4044873 81.06011719 -206.41967773 80.31835938 C-206.88104525 70.18406653 -211.09376553 62.40174787 -217.546875 54.7421875 C-219 53 -219 53 -220 51 C-218.77925781 50.84144531 -217.55851562 50.68289063 -216.30078125 50.51953125 C-207.28882079 49.26855843 -199.26025265 47.83888597 -190.95703125 43.98828125 C-184.97416035 41.98872202 -179.04438431 43.04309974 -172.9375 44 C-138.3244315 48.74648267 -104.02048396 40.97556115 -76 20 C-74.88625 19.15115234 -74.88625 19.15115234 -73.75 18.28515625 C-72.21144465 17.12803441 -70.61250015 16.05163053 -69 15 C-66 16 -66 16 -65.0078125 17.9609375 C-64.71648437 18.75757813 -64.42515625 19.55421875 -64.125 20.375 C-62.85678524 23.38042969 -62.12630752 24.88393363 -59.6875 27.125 C-52.25623007 29.54448323 -45.03962659 25.04404925 -38.4375 21.9375 C-37.36918945 21.44016357 -36.30087891 20.94282715 -35.20019531 20.43041992 C-23.61298697 14.97332628 -12.84868093 8.83214101 -2.42578125 1.37109375 C-1.22501953 0.69240234 -1.22501953 0.69240234 0 0 Z " fill="#422953" transform="translate(303,302)"/>
<path d="M0 0 C13.25955012 12.20203999 20.46988055 29.56660823 21.28125 47.40625 C21.31522862 49.68727072 21.3250281 51.96876062 21.3125 54.25 C21.30750488 55.46324951 21.30250977 56.67649902 21.29736328 57.92651367 C20.65894354 91.3819093 4.35160388 119.0683609 -18.1875 142.75 C-18.76886719 143.38421875 -19.35023438 144.0184375 -19.94921875 144.671875 C-23.77227345 148.71641649 -28.04862516 152.20059582 -32.375 155.6875 C-32.98190674 156.18515869 -33.58881348 156.68281738 -34.21411133 157.19555664 C-37.55847807 159.83545692 -38.79355826 160.75 -43.1875 160.75 C-43.72375 160.028125 -44.26 159.30625 -44.8125 158.5625 C-50.09685138 152.30471547 -58.24152906 150.34586165 -65.8125 147.9375 C-79.0975876 143.67512015 -90.67536471 138.04617934 -101.1875 128.75 C-101.7959375 128.28335938 -102.404375 127.81671875 -103.03125 127.3359375 C-118.2942169 115.47244959 -127.33677751 94.44601425 -130.1875 75.75 C-130.96114913 68.31511825 -131.36636327 60.86650599 -131.73046875 53.40234375 C-131.94308956 49.15234706 -132.44522365 45.26824376 -133.453125 41.13671875 C-134.35338028 37.05997329 -134.35338028 37.05997329 -132.87890625 34.3046875 C-131.82509766 33.47324219 -131.82509766 33.47324219 -130.75 32.625 C-129.99460938 31.97917969 -129.23921875 31.33335937 -128.4609375 30.66796875 C-127.71070313 30.03503906 -126.96046875 29.40210938 -126.1875 28.75 C-125.05659258 27.50290346 -123.9514642 26.23188256 -122.875 24.9375 C-119.52194214 21.03199325 -115.90240857 17.42513093 -112.23291016 13.8215332 C-109.57733743 11.19736852 -107.10702352 8.51797263 -104.75 5.625 C-93.94599989 -6.86473062 -78.17732813 -14.20779526 -62.1875 -17.25 C-61.011875 -17.476875 -59.83625 -17.70375 -58.625 -17.9375 C-37.04069925 -19.89970916 -16.84269277 -13.69697583 0 0 Z " fill="#7B6A7A" transform="translate(346.1875,139.25)"/>
<path d="M0 0 C3.27355747 3.03973194 5.52905157 6.29357736 8 10 C10.77593959 13.50837748 13.25771749 16.50514499 17 19 C22.62881464 19.58898417 25.67879375 18.43560337 30.4375 15.5 C39.17727351 10.5945143 39.17727351 10.5945143 45 12 C47.05687378 13.61225662 48.74659034 15.29891426 50.45703125 17.2734375 C52.92200669 20.03171381 54.72748561 20.95458094 58.375 21.5625 C63.92997398 21.49049108 68.23748211 18.34662108 72.8515625 15.53125 C76.26728853 13.87000359 78.2559761 13.575748 82 14 C83.66666667 15 85.33333333 16 87 17 C90.46771262 17.27741701 92.69407756 17.10197415 96 16 C96.27972656 16.73863281 96.55945313 17.47726562 96.84765625 18.23828125 C104.52160606 37.65756903 118.33828136 50.61339764 134 64 C134.86367188 64.74507813 135.72734375 65.49015625 136.6171875 66.2578125 C143.70362956 72.11822652 151.59960371 77.57453277 160.984375 78.46484375 C161.75523437 78.54283203 162.52609375 78.62082031 163.3203125 78.70117188 C164.92425096 78.85718197 166.52841666 79.01087534 168.1328125 79.16210938 C172.97309844 79.65659041 177.36287098 80.51835049 182 82 C177.79156293 84.80562471 173.36573239 85.68156084 168.5 86.9375 C167.47567871 87.20328857 166.45135742 87.46907715 165.39599609 87.74291992 C156.00965623 90.11239308 146.5977354 91.77848788 137 93 C136.32699356 93.08732895 135.65398712 93.1746579 134.96058655 93.26463318 C129.38318357 93.94081483 123.88486681 94.17395417 118.26953125 94.203125 C117.36479568 94.21013931 116.46006012 94.21715363 115.52790833 94.22438049 C112.6227211 94.24179957 109.71773753 94.24823308 106.8125 94.25 C105.82135193 94.25067474 104.83020386 94.25134949 103.809021 94.25204468 C89.64875897 94.23669643 75.9084102 93.88125264 62 91 C61.15099121 90.83902832 60.30198242 90.67805664 59.42724609 90.51220703 C12.08055932 81.48346533 -28.35268554 58.75479162 -64 27 C-61.42420709 21.70592351 -61.42420709 21.70592351 -59 20 C-56.5 19.875 -56.5 19.875 -54 21 C-52.1875 24.5625 -52.1875 24.5625 -51 28 C-44.20969837 27.59559145 -39.06738031 24.85022875 -33.125 21.6875 C-31.61329224 20.89194702 -31.61329224 20.89194702 -30.07104492 20.08032227 C-20.8336235 15.11082803 -12.34374203 9.33452908 -4 3 C-3.18917969 2.39285156 -2.37835938 1.78570312 -1.54296875 1.16015625 C-0.77919922 0.58587891 -0.77919922 0.58587891 0 0 Z " fill="#BEC7F6" transform="translate(150,418)"/>
<path d="M0 0 C3 1 3 1 3.9921875 2.9609375 C4.28351563 3.75757813 4.57484375 4.55421875 4.875 5.375 C6.24283887 8.70976995 6.78252565 9.83689424 9.75 12.0625 C10.4925 12.371875 11.235 12.68125 12 13 C10.5609916 16.28673738 8.77989422 18.47727154 6.25390625 21.01171875 C5.5047998 21.76501465 4.75569336 22.51831055 3.98388672 23.29443359 C3.1848291 24.08414551 2.38577148 24.87385742 1.5625 25.6875 C0.74281738 26.50041504 -0.07686523 27.31333008 -0.92138672 28.15087891 C-6.69908401 33.83047511 -12.53478998 39.10838074 -19 44 C-20.1971523 44.93681326 -21.39372491 45.87436758 -22.58984375 46.8125 C-32.27522858 54.32821326 -42.36802175 60.90526411 -53 67 C-53.74588379 67.43054688 -54.49176758 67.86109375 -55.26025391 68.3046875 C-71.73500516 77.7045888 -89.25563172 84.62811713 -107.6875 89.125 C-108.5542334 89.33745361 -109.4209668 89.54990723 -110.31396484 89.76879883 C-114.47502294 90.70634423 -117.84131043 91.42724257 -122 90 C-123.96822886 88.03177114 -123.66248381 84.65191291 -124 82 C-125.71896208 81.20458327 -125.71896208 81.20458327 -128 81 C-130.81220787 82.18937596 -130.81220787 82.18937596 -133.625 83.9375 C-138.82915718 87 -138.82915718 87 -141 87 C-140.59232218 84.07830893 -140.2249768 81.48991086 -138.98828125 78.796875 C-136.16577719 70.80907695 -137.01407874 60.29152408 -140.0625 52.5 C-142.33018636 47.78269256 -145.180036 43.738479 -148.546875 39.7421875 C-150 38 -150 38 -151 36 C-149.77925781 35.84144531 -148.55851562 35.68289063 -147.30078125 35.51953125 C-138.28882079 34.26855843 -130.26025265 32.83888597 -121.95703125 28.98828125 C-115.97416035 26.98872202 -110.04438431 28.04309974 -103.9375 29 C-69.3244315 33.74648267 -35.02048396 25.97556115 -7 5 C-6.2575 4.43410156 -5.515 3.86820312 -4.75 3.28515625 C-3.21144465 2.12803441 -1.61250015 1.05163053 0 0 Z " fill="#543E5B" transform="translate(234,317)"/>
<path d="M0 0 C3.27355747 3.03973194 5.52905157 6.29357736 8 10 C10.82158049 13.79226999 13.05733034 16.54612202 17.375 18.625 C21.6531602 20.82946683 23.39678967 24.53787781 25.74658203 28.59619141 C33.51414282 41.89158687 44.30949751 53.75164786 55.4609375 64.3046875 C56.02176025 64.8414209 56.58258301 65.3781543 57.16040039 65.93115234 C58.23722074 66.95370999 59.32713097 67.96270998 60.43139648 68.95556641 C61.89453125 70.34375 61.89453125 70.34375 64 73 C63.83016105 77.16983895 63.83016105 77.16983895 62 79 C59.98315961 79.29912023 57.96118817 79.56389537 55.9375 79.8125 C50.95159284 80.52010691 47.23030405 81.44509432 43.07421875 84.29296875 C29.89067592 88.78679408 7.11955035 74.54929257 -4.05322266 69.11450195 C-26.24757754 58.03938336 -45.54092658 43.44342747 -64 27 C-61.42420709 21.70592351 -61.42420709 21.70592351 -59 20 C-56.5 19.875 -56.5 19.875 -54 21 C-52.1875 24.5625 -52.1875 24.5625 -51 28 C-44.20969837 27.59559145 -39.06738031 24.85022875 -33.125 21.6875 C-31.61329224 20.89194702 -31.61329224 20.89194702 -30.07104492 20.08032227 C-20.8336235 15.11082803 -12.34374203 9.33452908 -4 3 C-3.18917969 2.39285156 -2.37835938 1.78570312 -1.54296875 1.16015625 C-0.77919922 0.58587891 -0.77919922 0.58587891 0 0 Z " fill="#FEC739" transform="translate(150,418)"/>
<path d="M0 0 C0.95648438 -0.00257813 1.91296875 -0.00515625 2.8984375 -0.0078125 C8.73217625 0.27635242 8.73217625 0.27635242 11.125 2.55078125 C11.62 3.17339844 12.115 3.79601562 12.625 4.4375 C19.82440896 13.04582555 27.99687813 20.95754443 36.625 28.125 C37.40359375 28.79273438 38.1821875 29.46046875 38.984375 30.1484375 C46.12679749 36.11524386 54.1047843 41.68816579 63.609375 42.58984375 C64.38023437 42.66783203 65.15109375 42.74582031 65.9453125 42.82617188 C67.54925096 42.98218197 69.15341666 43.13587534 70.7578125 43.28710938 C75.59809844 43.78159041 79.98787098 44.64335049 84.625 46.125 C80.41656293 48.93062471 75.99073239 49.80656084 71.125 51.0625 C70.10067871 51.32828857 69.07635742 51.59407715 68.02099609 51.86791992 C58.63428384 54.23748709 49.22270252 55.90141357 39.625 57.125 C38.95688797 57.21314468 38.28877594 57.30128937 37.60041809 57.3921051 C31.87318569 58.09548731 26.23902161 58.27100732 20.47265625 58.2578125 C19.53248154 58.25876923 18.59230682 58.25972595 17.62364197 58.26071167 C15.64793836 58.26138798 13.67223246 58.2595723 11.6965332 58.25537109 C8.69932989 58.25002112 5.70227681 58.2553318 2.70507812 58.26171875 C0.77343717 58.26105775 -1.15820368 58.25977615 -3.08984375 58.2578125 C-3.9724437 58.25983673 -4.85504364 58.26186096 -5.76438904 58.26394653 C-11.68719875 58.24201085 -17.49308675 57.8146304 -23.375 57.125 C-20.5375838 51.0062556 -15.00832711 48.09517315 -8.8125 45.8125 C-4.99764195 45.04952839 -1.24360076 44.53222113 2.625 44.125 C3.71449862 41.98077473 3.71449862 41.98077473 3.625 39.125 C1.79696168 36.51317427 -0.53221909 34.45958809 -2.875 32.3125 C-4.17496157 31.0721801 -5.47315664 29.83000599 -6.76953125 28.5859375 C-7.39553223 27.99135742 -8.0215332 27.39677734 -8.66650391 26.78417969 C-11.30049202 24.22622267 -13.68299641 21.48408607 -16.04296875 18.67578125 C-17.37751279 17.06752698 -17.37751279 17.06752698 -19.05078125 15.54296875 C-20.375 14.125 -20.375 14.125 -20.375 12.125 C-18.80078125 10.5390625 -18.80078125 10.5390625 -16.6875 8.75 C-15.95917969 8.13125 -15.23085937 7.5125 -14.48046875 6.875 C-6.18902146 -0.01659255 -6.18902146 -0.01659255 0 0 Z " fill="#E8EEFE" transform="translate(247.375,453.875)"/>
<path d="M0 0 C15.12879606 -0.5704181 31.10288484 0.3224487 43.33007812 10.34130859 C47.64994407 14.48042701 52.67576115 19.62977317 53.17382812 25.80224609 C52.95507812 28.09130859 52.95507812 28.09130859 51.95507812 29.09130859 C47.41852632 28.75526772 43.47556363 27.96368036 39.15429688 26.56787109 C31.8726905 24.55814773 24.62917357 24.63655334 17.14257812 24.71630859 C16.06497726 24.72029663 16.06497726 24.72029663 14.96560669 24.72436523 C2.45131403 24.77858103 -9.7155169 25.87597166 -22.04492188 28.09130859 C-22.48376784 22.36436871 -21.27349169 18.79768898 -18.29492188 14.02880859 C-17.946875 13.44292969 -17.59882813 12.85705078 -17.24023438 12.25341797 C-16.540878 11.0865289 -15.82541466 9.92913382 -15.09375 8.78222656 C-14.07611616 7.14159994 -13.17503689 5.43044412 -12.27929688 3.72021484 C-10.04492188 1.09130859 -10.04492188 1.09130859 -6.31054688 0.22802734 C-4.20634476 0.11658833 -2.10490771 0.09398704 0 0 Z " fill="#7B6A7A" transform="translate(448.044921875,20.90869140625)"/>
<path d="M0 0 C2.07257439 1.60323389 3.74256477 3.29426716 5.45703125 5.2734375 C8.30225532 8.45720721 10.91510384 9.33758441 15 10 C15.07863281 10.52078125 15.15726563 11.0415625 15.23828125 11.578125 C16.31222364 14.99271107 18.23366294 17.78573533 20.1875 20.75 C20.59025146 21.36963623 20.99300293 21.98927246 21.40795898 22.62768555 C24.11595096 26.75849332 26.9484975 30.76109845 30.00390625 34.64453125 C31 36 31 36 31 37 C30.154375 37.02578125 29.30875 37.0515625 28.4375 37.078125 C18.57708873 37.54343774 18.57708873 37.54343774 10 42 C8.33744812 43.93727555 7.23279793 45.73987046 6 48 C-6.89643092 37.96944262 -18.30148678 22.85322496 -25 8 C-23.2984375 7.4121875 -23.2984375 7.4121875 -21.5625 6.8125 C-18.2911958 5.61244485 -15.46881082 4.12992854 -12.5 2.3125 C-7.90592308 -0.26870817 -5.2390057 -1.0140011 0 0 Z " fill="#A4B2E8" transform="translate(195,430)"/>
<path d="M0 0 C4.43470994 8.74956286 8.31445995 16.78997729 5.15234375 26.640625 C2.39931781 32.8745956 -1.22400076 36.47420394 -7 40 C-12.91375919 34.19333102 -18.64825522 28.3297286 -24 22 C-24.50789063 21.41992188 -25.01578125 20.83984375 -25.5390625 20.2421875 C-29 16.2398743 -29 16.2398743 -29 14 C-28.15703369 13.61142822 -27.31406738 13.22285645 -26.44555664 12.82250977 C-23.32689977 11.38367636 -20.20916504 9.9428818 -17.09204102 8.50073242 C-15.74117048 7.87624121 -14.38993421 7.25254054 -13.03833008 6.62963867 C-11.09881078 5.73562483 -9.16061239 4.83880255 -7.22265625 3.94140625 C-6.05484619 3.40201416 -4.88703613 2.86262207 -3.68383789 2.30688477 C-1.13988621 1.24860918 -1.13988621 1.24860918 0 0 Z " fill="#543D5A" transform="translate(92,404)"/>
<path d="M0 0 C1.54882668 0.00502497 3.09765493 0.00958612 4.64648438 0.01367188 C8.41019576 0.02459862 12.17383015 0.04180825 15.9375 0.0625 C16.4325 1.0525 16.4325 1.0525 16.9375 2.0625 C16.21046875 2.330625 15.4834375 2.59875 14.734375 2.875 C1.91402562 7.87164899 -10.95874534 15.65160559 -19.0625 27.0625 C-22.03728412 25.72331927 -24.13778051 24.24342874 -26.4453125 21.9453125 C-27.05503906 21.33816406 -27.66476562 20.73101562 -28.29296875 20.10546875 C-28.91816406 19.47253906 -29.54335938 18.83960937 -30.1875 18.1875 C-30.82042969 17.56230469 -31.45335937 16.93710937 -32.10546875 16.29296875 C-33.01619141 15.37837891 -33.01619141 15.37837891 -33.9453125 14.4453125 C-34.49590332 13.89246582 -35.04649414 13.33961914 -35.61376953 12.77001953 C-38.0628035 9.88351067 -39.0625 7.87253001 -39.0625 4.0625 C-37.08499322 3.57652847 -35.1053835 3.09911243 -33.125 2.625 C-31.47177734 2.22474609 -31.47177734 2.22474609 -29.78515625 1.81640625 C-19.87258213 -0.19107204 -10.05976611 -0.05698061 0 0 Z " fill="#655263" transform="translate(465.0625,44.9375)"/>
<path d="M0 0 C3.62011046 2.33296007 5.89022378 4.96794755 7.8125 8.8125 C8.21704634 14.07160247 7.60318106 17.32747687 4.8125 21.8125 C2.03204494 25.02740116 0.08226671 26.54877472 -4.23828125 27.05078125 C-9.73525239 27.23116545 -12.9420588 26.65361347 -17.1875 22.8125 C-20.03405189 18.73244229 -20.83281849 14.95544989 -20.67578125 10.0625 C-19.80445973 6.04745045 -17.29338074 3.38411227 -14.1875 0.8125 C-9.41735745 -1.99346621 -5.17502386 -1.92795007 0 0 Z " fill="#BBC5F3" transform="translate(391.1875,30.1875)"/>
<path d="M0 0 C1.39935013 2.79870027 1.25265405 4.90498792 1 8 C-0.1875 9.875 -0.1875 9.875 -2 11 C-4.85480169 11.42822025 -6.34492892 11.40659584 -8.8125 9.875 C-10.55198782 7.12844028 -10.39769128 5.18153026 -10 2 C-7.65446208 -2.27715738 -4.20919664 -1.01332512 0 0 Z " fill="#E7EDFE" transform="translate(392,36)"/>
</svg>
